<svg id="e97wjhlfx2ac1" xmlns="http://www.w3.org/2000/svg" xmlns:xlink="http://www.w3.org/1999/xlink" viewBox="0 0 125 125" shape-rendering="geometricPrecision" text-rendering="geometricPrecision" width="125" height="125"><style><![CDATA[#e97wjhlfx2ac2_to {animation: e97wjhlfx2ac2_to__to 3000ms linear infinite normal forwards}@keyframes e97wjhlfx2ac2_to__to { 0% {transform: translate(60.555002px,34.440002px)} 6.666667% {transform: translate(71.325002px,34.440002px)} 26.666667% {transform: translate(60.555002px,34.440002px)} 40% {transform: translate(59.325002px,34.440002px)} 56.666667% {transform: translate(71.325002px,34.440002px)} 76.666667% {transform: translate(63.325002px,34.440002px)} 100% {transform: translate(60.555002px,34.440002px)} }#e97wjhlfx2ac3_to {animation: e97wjhlfx2ac3_to__to 3000ms linear infinite normal forwards}@keyframes e97wjhlfx2ac3_to__to { 0% {transform: translate(96.754997px,34.440002px)} 6.666667% {transform: translate(108.144997px,34.440002px)} 26.666667% {transform: translate(96.754997px,34.440002px)} 50% {transform: translate(113.144997px,34.440002px)} 100% {transform: translate(96.754997px,34.440002px)} }#e97wjhlfx2ac5_to {animation: e97wjhlfx2ac5_to__to 3000ms linear infinite normal forwards}@keyframes e97wjhlfx2ac5_to__to { 0% {transform: translate(100.015003px,70.489998px)} 6.666667% {transform: translate(111.485003px,70.489998px)} 26.666667% {transform: translate(100.015003px,70.489998px)} 40% {transform: translate(104.485003px,70.489998px)} 56.666667% {transform: translate(100.015003px,70.489998px)} 76.666667% {transform: translate(114.485003px,70.489998px)} 100% {transform: translate(100.015003px,70.489998px)} }#e97wjhlfx2ac6_to {animation: e97wjhlfx2ac6_to__to 3000ms linear infinite normal forwards}@keyframes e97wjhlfx2ac6_to__to { 0% {transform: translate(74.105005px,46.450001px)} 10% {transform: translate(83.325005px,46.450001px)} 26.666667% {transform: translate(74.105005px,46.450001px)} 40% {transform: translate(65.325005px,46.450001px)} 56.666667% {transform: translate(74.105005px,46.450001px)} 70% {transform: translate(91.325005px,46.450001px)} 100% {transform: translate(74.105005px,46.450001px)} }#e97wjhlfx2ac7_to {animation: e97wjhlfx2ac7_to__to 3000ms linear infinite normal forwards}@keyframes e97wjhlfx2ac7_to__to { 0% {transform: translate(80.749996px,80.919998px)} 6.666667% {transform: translate(82.559996px,80.919998px)} 16.666667% {transform: translate(80.749996px,80.919998px)} 26.666667% {transform: translate(82.559996px,80.919998px)} 40% {transform: translate(80.749996px,80.919998px)} 56.666667% {transform: translate(82.559996px,80.919998px)} 73.333333% {transform: translate(80.749996px,80.919998px)} 86.666667% {transform: translate(82.559996px,80.919998px)} 100% {transform: translate(80.749996px,80.919998px)} }#e97wjhlfx2ac8_to {animation: e97wjhlfx2ac8_to__to 3000ms linear infinite normal forwards}@keyframes e97wjhlfx2ac8_to__to { 0% {transform: translate(90.105005px,58.450001px)} 6.666667% {transform: translate(81.325005px,58.450001px)} 16.666667% {transform: translate(91.325005px,58.450001px)} 26.666667% {transform: translate(84.325005px,58.450001px)} 40% {transform: translate(92.325005px,58.450001px)} 56.666667% {transform: translate(83.325005px,58.450001px)} 70% {transform: translate(90.105005px,58.450001px)} 83.333333% {transform: translate(84.325005px,58.450001px)} 100% {transform: translate(90.105005px,58.450001px)} }#e97wjhlfx2ac14_tr {animation: e97wjhlfx2ac14_tr__tr 3000ms linear infinite normal forwards}@keyframes e97wjhlfx2ac14_tr__tr { 0% {transform: translate(34.725002px,64.329998px) rotate(0deg)} 26.666667% {transform: translate(34.725002px,64.329998px) rotate(0deg)} 33.333333% {transform: translate(34.725002px,64.329998px) rotate(21deg)} 40% {transform: translate(34.725002px,64.329998px) rotate(-6deg)} 46.666667% {transform: translate(34.725002px,64.329998px) rotate(0deg)} 66.666667% {transform: translate(34.725002px,64.329998px) rotate(0deg)} 73.333333% {transform: translate(34.725002px,64.329998px) rotate(27deg)} 76.666667% {transform: translate(34.725002px,64.329998px) rotate(-12deg)} 80% {transform: translate(34.725002px,64.329998px) rotate(5deg)} 83.333333% {transform: translate(34.725002px,64.329998px) rotate(0deg)} 100% {transform: translate(34.725002px,64.329998px) rotate(0deg)} }]]></style><g id="e97wjhlfx2ac2_to" transform="translate(60.555002,34.440002)"><path id="e97wjhlfx2ac2" d="M85.080000,36.240000L36.030000,36.240000C35.030000,36.240000,34.230000,35.430000,34.230000,34.440000C34.230000,33.450000,35.040000,32.640000,36.030000,32.640000L85.080000,32.640000C86.080000,32.640000,86.880000,33.450000,86.880000,34.440000C86.880000,35.430000,86.080000,36.240000,85.080000,36.240000Z" transform="translate(-60.555002,-34.440002)" fill="rgb(0,219,199)" stroke="none" stroke-width="1"/></g><g id="e97wjhlfx2ac3_to" transform="translate(96.754997,34.440002)"><path id="e97wjhlfx2ac3" d="M100.100000,36.240000L93.410000,36.240000C92.410000,36.240000,91.610000,35.430000,91.610000,34.440000C91.610000,33.450000,92.420000,32.640000,93.410000,32.640000L100.100000,32.640000C101.100000,32.640000,101.900000,33.450000,101.900000,34.440000C101.900000,35.430000,101.100000,36.240000,100.100000,36.240000Z" transform="translate(-96.754997,-34.440002)" fill="rgb(0,219,199)" stroke="none" stroke-width="1"/></g><path id="e97wjhlfx2ac4" d="M85.810000,72.290000L77.680000,72.290000C76.680000,72.290000,75.880000,71.480000,75.880000,70.490000C75.880000,69.500000,76.690000,68.690000,77.680000,68.690000L85.810000,68.690000C86.810000,68.690000,87.610000,69.500000,87.610000,70.490000C87.610000,71.480000,86.810000,72.290000,85.810000,72.290000Z" fill="rgb(0,219,199)" stroke="none" stroke-width="1"/><g id="e97wjhlfx2ac5_to" transform="translate(100.015003,70.489998)"><path id="e97wjhlfx2ac5" d="M107.700000,72.290000L92.330000,72.290000C91.330000,72.290000,90.530000,71.480000,90.530000,70.490000C90.530000,69.500000,91.340000,68.690000,92.330000,68.690000L107.700000,68.690000C108.700000,68.690000,109.500000,69.500000,109.500000,70.490000C109.500000,71.480000,108.690000,72.290000,107.700000,72.290000Z" transform="translate(-100.015003,-70.489998)" fill="rgb(0,219,199)" stroke="none" stroke-width="1"/></g><g id="e97wjhlfx2ac6_to" transform="translate(74.105005,46.450001)"><path id="e97wjhlfx2ac6" d="M98.630000,48.250000L49.580000,48.250000C48.580000,48.250000,47.780000,47.440000,47.780000,46.450000C47.780000,45.460000,48.590000,44.650000,49.580000,44.650000L98.630000,44.650000C99.630000,44.650000,100.430000,45.460000,100.430000,46.450000C100.430000,47.440000,99.630000,48.250000,98.630000,48.250000Z" transform="translate(-74.105005,-46.450001)" fill="rgb(0,219,199)" stroke="none" stroke-width="1"/></g><g id="e97wjhlfx2ac7_to" transform="translate(80.749996,80.919998)"><path id="e97wjhlfx2ac7" d="M87.510000,82.720000L73.990000,82.720000C72.990000,82.720000,72.190000,81.910000,72.190000,80.920000C72.190000,79.930000,73,79.120000,73.990000,79.120000L87.510000,79.120000C88.510000,79.120000,89.310000,79.930000,89.310000,80.920000C89.310000,81.910000,88.500000,82.720000,87.510000,82.720000Z" transform="translate(-80.749996,-80.919998)" fill="rgb(0,219,199)" stroke="none" stroke-width="1"/></g><g id="e97wjhlfx2ac8_to" transform="translate(90.105005,58.450001)"><path id="e97wjhlfx2ac8" d="M114.630000,60.250000L65.580000,60.250000C64.580000,60.250000,63.780000,59.440000,63.780000,58.450000C63.780000,57.460000,64.590000,56.650000,65.580000,56.650000L114.630000,56.650000C115.630000,56.650000,116.430000,57.460000,116.430000,58.450000C116.430000,59.440000,115.630000,60.250000,114.630000,60.250000Z" transform="translate(-90.105005,-58.450001)" fill="rgb(0,219,199)" stroke="none" stroke-width="1"/></g><g id="e97wjhlfx2ac9"><path id="e97wjhlfx2ac10" d="M14.070000,65.680000L19.270000,65.680000C20.950000,65.680000,22.160000,67.280000,21.700000,68.890000C20.860000,71.820000,19.220000,75.940000,16.300000,77.650000C14.870000,78.490000,13.030000,77.670000,12.610000,76.060000C12.180000,74.410000,11.700000,71.870000,11.530000,68.340000C11.480000,66.900000,12.630000,65.680000,14.070000,65.680000Z" fill="rgb(47,36,120)" stroke="none" stroke-width="1"/><path id="e97wjhlfx2ac11" d="M40.370000,91.640000C40.370000,91.640000,30.270000,90.320000,26.990000,89.470000C25,88.950000,10.840000,85.770000,10.840000,66.140000L28.160000,48.850000L48.300000,48.850000C66.820000,48.850000,73.350000,62.990000,73.350000,81.510000L73.350000,91.630000" fill="none" stroke="rgb(47,36,120)" stroke-width="3.439300" stroke-linecap="round" stroke-linejoin="round" stroke-miterlimit="10"/><path id="e97wjhlfx2ac12" d="M49.680000,26.640000C32.770000,26.640000,19.060000,40.350000,19.060000,57.260000L30.600000,57.260000C31.050000,47.090000,39.410000,38.980000,49.690000,38.980000C60.260000,38.980000,68.820000,47.540000,68.820000,58.110000C68.820000,66.080000,63.950000,72.900000,57.020000,75.780000C57.750000,76.020000,58.510000,76.180000,59.320000,76.180000L73.750000,76.180000C73.780000,76.140000,73.810000,76.110000,73.830000,76.070000C77.880000,70.880000,80.300000,64.350000,80.300000,57.250000C80.300000,40.340000,66.590000,26.640000,49.680000,26.640000Z" fill="rgb(0,219,199)" stroke="rgb(47,36,120)" stroke-width="3.439300" stroke-linecap="round" stroke-linejoin="round" stroke-miterlimit="10"/><path id="e97wjhlfx2ac13" d="M68.810000,58.100000C68.810000,47.530000,60.250000,38.970000,49.680000,38.970000C39.400000,38.970000,31.040000,47.080000,30.590000,57.250000L44.670000,57.250000C48.710000,57.250000,51.990000,60.530000,51.990000,64.570000L51.990000,68.850000C51.990000,72.080000,54.100000,74.800000,57.010000,75.770000C63.940000,72.890000,68.810000,66.070000,68.810000,58.100000Z" fill="rgb(0,219,199)" stroke="rgb(47,36,120)" stroke-width="3.439300" stroke-linecap="round" stroke-linejoin="round" stroke-miterlimit="10"/></g><g id="e97wjhlfx2ac14_tr" transform="translate(34.725002,64.329998) rotate(0)"><path id="e97wjhlfx2ac14" d="M39.440000,68.670000C38.490000,68.670000,37.720000,67.900000,37.720000,66.950000C37.720000,64.980000,36.470000,63.430000,34.870000,63.430000C33.170000,63.430000,31.730000,65.040000,31.730000,66.950000C31.730000,67.900000,30.960000,68.670000,30.010000,68.670000C29.060000,68.670000,28.290000,67.900000,28.290000,66.950000C28.290000,63.180000,31.300000,59.990000,34.870000,59.990000C38.400000,59.990000,41.160000,63.050000,41.160000,66.950000C41.160000,67.900000,40.390000,68.670000,39.440000,68.670000Z" transform="translate(-34.725002,-64.329998)" fill="rgb(0,219,199)" stroke="none" stroke-width="1"/></g></svg>