<?xml version="1.0" encoding="utf-8"?>
<!-- Generator: Adobe Illustrator 23.0.3, SVG Export Plug-In . SVG Version: 6.00 Build 0)  -->
<svg version="1.1" id="e97wjhlfx2ac1" text-rendering="geometricPrecision" shape-rendering="geometricPrecision"
	 xmlns="http://www.w3.org/2000/svg" xmlns:xlink="http://www.w3.org/1999/xlink" x="0px" y="0px" viewBox="0 0 374.7 125"
	 style="enable-background:new 0 0 374.7 125;" xml:space="preserve">
<style type="text/css">
	.st0{fill:#00DBC7;}
	.st1{fill:#2F2478;}
	.st2{fill:none;stroke:#2F2478;stroke-width:3.4393;stroke-linecap:round;stroke-linejoin:round;stroke-miterlimit:10;}
	.st3{fill:#00DBC7;stroke:#2F2478;stroke-width:3.4393;stroke-linecap:round;stroke-linejoin:round;stroke-miterlimit:10;}
	.st4{font-family:'Gilroy-ExtraBold';}
	.st5{font-size:94px;}
</style>
<g id="e97wjhlfx2ac2_to" transform="translate(60.555002,34.440002)">
	<path id="e97wjhlfx2ac2" class="st0" d="M24.5,1.8h-49.1c-1,0-1.8-0.8-1.8-1.8c0-1,0.8-1.8,1.8-1.8h49.1c1,0,1.8,0.8,1.8,1.8
		C26.3,1,25.5,1.8,24.5,1.8z"/>
</g>
<g id="e97wjhlfx2ac3_to" transform="translate(96.754997,34.440002)">
	<path id="e97wjhlfx2ac3" class="st0" d="M3.3,1.8h-6.7c-1,0-1.8-0.8-1.8-1.8c0-1,0.8-1.8,1.8-1.8h6.7c1,0,1.8,0.8,1.8,1.8
		C5.1,1,4.3,1.8,3.3,1.8z"/>
</g>
<path id="e97wjhlfx2ac4" class="st0" d="M85.8,72.3h-8.1c-1,0-1.8-0.8-1.8-1.8c0-1,0.8-1.8,1.8-1.8h8.1c1,0,1.8,0.8,1.8,1.8
	C87.6,71.5,86.8,72.3,85.8,72.3z"/>
<g id="e97wjhlfx2ac5_to" transform="translate(100.015003,70.489998)">
	<path id="e97wjhlfx2ac5" class="st0" d="M7.7,1.8H-7.7c-1,0-1.8-0.8-1.8-1.8c0-1,0.8-1.8,1.8-1.8H7.7c1,0,1.8,0.8,1.8,1.8
		C9.5,1,8.7,1.8,7.7,1.8z"/>
</g>
<g id="e97wjhlfx2ac6_to" transform="translate(74.105005,46.450001)">
	<path id="e97wjhlfx2ac6" class="st0" d="M24.5,1.8h-49c-1,0-1.8-0.8-1.8-1.8c0-1,0.8-1.8,1.8-1.8h49c1,0,1.8,0.8,1.8,1.8
		C26.3,1,25.5,1.8,24.5,1.8z"/>
</g>
<g id="e97wjhlfx2ac7_to" transform="translate(80.749996,80.919998)">
	<path id="e97wjhlfx2ac7" class="st0" d="M6.8,1.8H-6.8c-1,0-1.8-0.8-1.8-1.8c0-1,0.8-1.8,1.8-1.8H6.8c1,0,1.8,0.8,1.8,1.8
		C8.6,1,7.8,1.8,6.8,1.8z"/>
</g>
<g id="e97wjhlfx2ac8_to" transform="translate(90.105005,58.450001)">
	<path id="e97wjhlfx2ac8" class="st0" d="M24.5,1.8h-49c-1,0-1.8-0.8-1.8-1.8c0-1,0.8-1.8,1.8-1.8h49c1,0,1.8,0.8,1.8,1.8
		C26.3,1,25.5,1.8,24.5,1.8z"/>
</g>
<g id="e97wjhlfx2ac9">
	<path id="e97wjhlfx2ac10" class="st1" d="M14.1,65.7h5.2c1.7,0,2.9,1.6,2.4,3.2c-0.8,2.9-2.5,7.1-5.4,8.8c-1.4,0.8-3.3,0-3.7-1.6
		c-0.4-1.6-0.9-4.2-1.1-7.7C11.5,66.9,12.6,65.7,14.1,65.7z"/>
	<path id="e97wjhlfx2ac11" class="st2" d="M40.4,91.6c0,0-10.1-1.3-13.4-2.2c-2-0.5-16.1-3.7-16.1-23.3l17.3-17.3h20.1
		c18.5,0,25,14.1,25,32.7v10.1"/>
	<path id="e97wjhlfx2ac12" class="st3" d="M49.7,26.6c-16.9,0-30.6,13.7-30.6,30.6h11.5C31,47.1,39.4,39,49.7,39
		c10.6,0,19.1,8.6,19.1,19.1c0,8-4.9,14.8-11.8,17.7c0.7,0.2,1.5,0.4,2.3,0.4h14.4c0,0,0.1-0.1,0.1-0.1c4-5.2,6.5-11.7,6.5-18.8
		C80.3,40.3,66.6,26.6,49.7,26.6z"/>
	<path id="e97wjhlfx2ac13" class="st3" d="M68.8,58.1c0-10.6-8.6-19.1-19.1-19.1C39.4,39,31,47.1,30.6,57.3h14.1
		c4,0,7.3,3.3,7.3,7.3v4.3c0,3.2,2.1,6,5,6.9C63.9,72.9,68.8,66.1,68.8,58.1z"/>
</g>
<g id="e97wjhlfx2ac14_tr" transform="translate(34.725002,64.329998) rotate(0)">
	<path id="e97wjhlfx2ac14" class="st0" d="M4.7,4.3C3.8,4.3,3,3.6,3,2.6c0-2-1.3-3.5-2.9-3.5C-1.6-0.9-3,0.7-3,2.6
		c0,1-0.8,1.7-1.7,1.7c-1,0-1.7-0.8-1.7-1.7c0-3.8,3-7,6.6-7c3.5,0,6.3,3.1,6.3,7C6.4,3.6,5.7,4.3,4.7,4.3z"/>
</g>
<text transform="matrix(1 0 0 1 125.8926 86.4976)" class="st1 st4 st5">gofer</text>
</svg>
